# xmcd
#
# Track frame offsets:
#	150
#	19506
#	39487
#	61030
#
# Disc length: 1089 seconds
#
# Revision: 4
# Processed by: cddbd v1.5.2PL0 Copyright (c) Steve Scherf et al.
# Submitted via: EasyCDDAExtractor 11.0.0.1
#
DISCID=23043f04
DTITLE=ΒΑΛΑΝΤΗΣ - ΚΑΠΩΣ ΕΤΣΙ ΚΑΙ ΜΕΤΑ
DYEAR=1998
DGENRE=ΛΑΪΚΑ
TTITLE0=ΕΝΟΙΩΣΑ
TTITLE1=ΟΛΑ ΤΑ ΕΔΩΣΑ ΓΙΑ ΣΕΝΑ
TTITLE2=ΜΙΑ ΚΑΡΔΙΑ ΑΠΟ ΧΡΥΣΑΦΙ
TTITLE3=ΜΙΑ ΚΑΡΔΙΑ ΑΠΟ ΧΡΥΣΑΦΙ DRAGON MIX
EXTD=Submitted By:\nJoel "JRS One" Spurny
EXTT0=
EXTT1=
EXTT2=
EXTT3=
PLAYORDER=
